<?xml version="1.0" encoding="utf-8" standalone="no"?>
<!DOCTYPE svg PUBLIC "-//W3C//DTD SVG 1.1//EN"
  "http://www.w3.org/Graphics/SVG/1.1/DTD/svg11.dtd">
<!-- Created with matplotlib (http://matplotlib.org/) -->
<svg height="864pt" version="1.1" viewBox="0 0 1584 864" width="1584pt" xmlns="http://www.w3.org/2000/svg" xmlns:xlink="http://www.w3.org/1999/xlink">
 <defs>
  <style type="text/css">
*{stroke-linecap:butt;stroke-linejoin:round;}
  </style>
 </defs>
 <g id="figure_1">
  <g id="patch_1">
   <path d="M 0 864 
L 1584 864 
L 1584 0 
L 0 0 
z
" style="fill:#ffffff;"/>
  </g>
  <g id="axes_1">
   <g id="patch_2">
    <path d="M 198 756 
L 1425.6 756 
L 1425.6 103.68 
L 198 103.68 
z
" style="fill:#eaeaf2;"/>
   </g>
   <g id="matplotlib.axis_1">
    <g id="xtick_1">
     <g id="line2d_1">
      <path clip-path="url(#p387abc38aa)" d="M 224.686957 756 
L 224.686957 103.68 
" style="fill:none;stroke:#ffffff;stroke-linecap:round;"/>
     </g>
     <g id="line2d_2"/>
     <g id="text_1">
      <!-- May -->
      <defs>
       <path d="M 7.421875 0 
L 7.421875 71.578125 
L 21.6875 71.578125 
L 38.625 20.90625 
Q 40.96875 13.8125 42.046875 10.296875 
Q 43.265625 14.203125 45.84375 21.78125 
L 62.984375 71.578125 
L 75.734375 71.578125 
L 75.734375 0 
L 66.609375 0 
L 66.609375 59.90625 
L 45.796875 0 
L 37.25 0 
L 16.546875 60.9375 
L 16.546875 0 
z
" id="ArialMT-4d"/>
       <path d="M 40.4375 6.390625 
Q 35.546875 2.25 31.03125 0.53125 
Q 26.515625 -1.171875 21.34375 -1.171875 
Q 12.796875 -1.171875 8.203125 3 
Q 3.609375 7.171875 3.609375 13.671875 
Q 3.609375 17.484375 5.34375 20.625 
Q 7.078125 23.78125 9.890625 25.6875 
Q 12.703125 27.59375 16.21875 28.5625 
Q 18.796875 29.25 24.03125 29.890625 
Q 34.671875 31.15625 39.703125 32.90625 
Q 39.75 34.71875 39.75 35.203125 
Q 39.75 40.578125 37.25 42.78125 
Q 33.890625 45.75 27.25 45.75 
Q 21.046875 45.75 18.09375 43.578125 
Q 15.140625 41.40625 13.71875 35.890625 
L 5.125 37.0625 
Q 6.296875 42.578125 8.984375 45.96875 
Q 11.671875 49.359375 16.75 51.1875 
Q 21.828125 53.03125 28.515625 53.03125 
Q 35.15625 53.03125 39.296875 51.46875 
Q 43.453125 49.90625 45.40625 47.53125 
Q 47.359375 45.171875 48.140625 41.546875 
Q 48.578125 39.3125 48.578125 33.453125 
L 48.578125 21.734375 
Q 48.578125 9.46875 49.140625 6.21875 
Q 49.703125 2.984375 51.375 0 
L 42.1875 0 
Q 40.828125 2.734375 40.4375 6.390625 
z
M 39.703125 26.03125 
Q 34.90625 24.078125 25.34375 22.703125 
Q 19.921875 21.921875 17.671875 20.9375 
Q 15.4375 19.96875 14.203125 18.09375 
Q 12.984375 16.21875 12.984375 13.921875 
Q 12.984375 10.40625 15.640625 8.0625 
Q 18.3125 5.71875 23.4375 5.71875 
Q 28.515625 5.71875 32.46875 7.9375 
Q 36.421875 10.15625 38.28125 14.015625 
Q 39.703125 17 39.703125 22.796875 
z
" id="ArialMT-61"/>
       <path d="M 6.203125 -19.96875 
L 5.21875 -11.71875 
Q 8.109375 -12.5 10.25 -12.5 
Q 13.1875 -12.5 14.9375 -11.515625 
Q 16.703125 -10.546875 17.828125 -8.796875 
Q 18.65625 -7.46875 20.515625 -2.25 
Q 20.75 -1.515625 21.296875 -0.09375 
L 1.609375 51.859375 
L 11.078125 51.859375 
L 21.875 21.828125 
Q 23.96875 16.109375 25.640625 9.8125 
Q 27.15625 15.875 29.25 21.625 
L 40.328125 51.859375 
L 49.125 51.859375 
L 29.390625 -0.875 
Q 26.21875 -9.421875 24.46875 -12.640625 
Q 22.125 -17 19.09375 -19.015625 
Q 16.0625 -21.046875 11.859375 -21.046875 
Q 9.328125 -21.046875 6.203125 -19.96875 
z
" id="ArialMT-79"/>
      </defs>
      <g style="fill:#262626;" transform="translate(215.241644 770.275)scale(0.1 -0.1)">
       <use xlink:href="#ArialMT-4d"/>
       <use x="83.300781" xlink:href="#ArialMT-61"/>
       <use x="138.916016" xlink:href="#ArialMT-79"/>
      </g>
      <!-- 2018 -->
      <defs>
       <path d="M 50.34375 8.453125 
L 50.34375 0 
L 3.03125 0 
Q 2.9375 3.171875 4.046875 6.109375 
Q 5.859375 10.9375 9.828125 15.625 
Q 13.8125 20.3125 21.34375 26.46875 
Q 33.015625 36.03125 37.109375 41.625 
Q 41.21875 47.21875 41.21875 52.203125 
Q 41.21875 57.421875 37.46875 61 
Q 33.734375 64.59375 27.734375 64.59375 
Q 21.390625 64.59375 17.578125 60.78125 
Q 13.765625 56.984375 13.71875 50.25 
L 4.6875 51.171875 
Q 5.609375 61.28125 11.65625 66.578125 
Q 17.71875 71.875 27.9375 71.875 
Q 38.234375 71.875 44.234375 66.15625 
Q 50.25 60.453125 50.25 52 
Q 50.25 47.703125 48.484375 43.546875 
Q 46.734375 39.40625 42.65625 34.8125 
Q 38.578125 30.21875 29.109375 22.21875 
Q 21.1875 15.578125 18.9375 13.203125 
Q 16.703125 10.84375 15.234375 8.453125 
z
" id="ArialMT-32"/>
       <path d="M 4.15625 35.296875 
Q 4.15625 48 6.765625 55.734375 
Q 9.375 63.484375 14.515625 67.671875 
Q 19.671875 71.875 27.484375 71.875 
Q 33.25 71.875 37.59375 69.546875 
Q 41.9375 67.234375 44.765625 62.859375 
Q 47.609375 58.5 49.21875 52.21875 
Q 50.828125 45.953125 50.828125 35.296875 
Q 50.828125 22.703125 48.234375 14.96875 
Q 45.65625 7.234375 40.5 3 
Q 35.359375 -1.21875 27.484375 -1.21875 
Q 17.140625 -1.21875 11.234375 6.203125 
Q 4.15625 15.140625 4.15625 35.296875 
z
M 13.1875 35.296875 
Q 13.1875 17.671875 17.3125 11.828125 
Q 21.4375 6 27.484375 6 
Q 33.546875 6 37.671875 11.859375 
Q 41.796875 17.71875 41.796875 35.296875 
Q 41.796875 52.984375 37.671875 58.78125 
Q 33.546875 64.59375 27.390625 64.59375 
Q 21.34375 64.59375 17.71875 59.46875 
Q 13.1875 52.9375 13.1875 35.296875 
z
" id="ArialMT-30"/>
       <path d="M 37.25 0 
L 28.46875 0 
L 28.46875 56 
Q 25.296875 52.984375 20.140625 49.953125 
Q 14.984375 46.921875 10.890625 45.40625 
L 10.890625 53.90625 
Q 18.265625 57.375 23.78125 62.296875 
Q 29.296875 67.234375 31.59375 71.875 
L 37.25 71.875 
z
" id="ArialMT-31"/>
       <path d="M 17.671875 38.8125 
Q 12.203125 40.828125 9.5625 44.53125 
Q 6.9375 48.25 6.9375 53.421875 
Q 6.9375 61.234375 12.546875 66.546875 
Q 18.171875 71.875 27.484375 71.875 
Q 36.859375 71.875 42.578125 66.421875 
Q 48.296875 60.984375 48.296875 53.171875 
Q 48.296875 48.1875 45.671875 44.5 
Q 43.0625 40.828125 37.75 38.8125 
Q 44.34375 36.671875 47.78125 31.875 
Q 51.21875 27.09375 51.21875 20.453125 
Q 51.21875 11.28125 44.71875 5.03125 
Q 38.234375 -1.21875 27.640625 -1.21875 
Q 17.046875 -1.21875 10.546875 5.046875 
Q 4.046875 11.328125 4.046875 20.703125 
Q 4.046875 27.6875 7.59375 32.390625 
Q 11.140625 37.109375 17.671875 38.8125 
z
M 15.921875 53.71875 
Q 15.921875 48.640625 19.1875 45.40625 
Q 22.46875 42.1875 27.6875 42.1875 
Q 32.765625 42.1875 36.015625 45.375 
Q 39.265625 48.578125 39.265625 53.21875 
Q 39.265625 58.0625 35.90625 61.359375 
Q 32.5625 64.65625 27.59375 64.65625 
Q 22.5625 64.65625 19.234375 61.421875 
Q 15.921875 58.203125 15.921875 53.71875 
z
M 13.09375 20.65625 
Q 13.09375 16.890625 14.875 13.375 
Q 16.65625 9.859375 20.171875 7.921875 
Q 23.6875 6 27.734375 6 
Q 34.03125 6 38.125 10.046875 
Q 42.234375 14.109375 42.234375 20.359375 
Q 42.234375 26.703125 38.015625 30.859375 
Q 33.796875 35.015625 27.4375 35.015625 
Q 21.234375 35.015625 17.15625 30.90625 
Q 13.09375 26.8125 13.09375 20.65625 
z
" id="ArialMT-38"/>
      </defs>
      <g style="fill:#262626;" transform="translate(213.565082 780.969063)scale(0.1 -0.1)">
       <use xlink:href="#ArialMT-32"/>
       <use x="55.615234" xlink:href="#ArialMT-30"/>
       <use x="111.230469" xlink:href="#ArialMT-31"/>
       <use x="166.845703" xlink:href="#ArialMT-38"/>
      </g>
     </g>
    </g>
    <g id="xtick_2">
     <g id="line2d_3">
      <path clip-path="url(#p387abc38aa)" d="M 525.521739 756 
L 525.521739 103.68 
" style="fill:none;stroke:#ffffff;stroke-linecap:round;"/>
     </g>
     <g id="line2d_4"/>
     <g id="text_2">
      <!-- Jun -->
      <defs>
       <path d="M 2.875 20.3125 
L 11.421875 21.484375 
Q 11.765625 13.28125 14.5 10.25 
Q 17.234375 7.234375 22.078125 7.234375 
Q 25.640625 7.234375 28.21875 8.859375 
Q 30.8125 10.5 31.78125 13.296875 
Q 32.765625 16.109375 32.765625 22.265625 
L 32.765625 71.578125 
L 42.234375 71.578125 
L 42.234375 22.796875 
Q 42.234375 13.8125 40.0625 8.875 
Q 37.890625 3.953125 33.171875 1.359375 
Q 28.46875 -1.21875 22.125 -1.21875 
Q 12.703125 -1.21875 7.6875 4.203125 
Q 2.6875 9.625 2.875 20.3125 
z
" id="ArialMT-4a"/>
       <path d="M 40.578125 0 
L 40.578125 7.625 
Q 34.515625 -1.171875 24.125 -1.171875 
Q 19.53125 -1.171875 15.546875 0.578125 
Q 11.578125 2.34375 9.640625 5 
Q 7.71875 7.671875 6.9375 11.53125 
Q 6.390625 14.109375 6.390625 19.734375 
L 6.390625 51.859375 
L 15.1875 51.859375 
L 15.1875 23.09375 
Q 15.1875 16.21875 15.71875 13.8125 
Q 16.546875 10.359375 19.234375 8.375 
Q 21.921875 6.390625 25.875 6.390625 
Q 29.828125 6.390625 33.296875 8.421875 
Q 36.765625 10.453125 38.203125 13.9375 
Q 39.65625 17.4375 39.65625 24.078125 
L 39.65625 51.859375 
L 48.4375 51.859375 
L 48.4375 0 
z
" id="ArialMT-75"/>
       <path d="M 6.59375 0 
L 6.59375 51.859375 
L 14.5 51.859375 
L 14.5 44.484375 
Q 20.21875 53.03125 31 53.03125 
Q 35.6875 53.03125 39.625 51.34375 
Q 43.5625 49.65625 45.515625 46.921875 
Q 47.46875 44.1875 48.25 40.4375 
Q 48.734375 37.984375 48.734375 31.890625 
L 48.734375 0 
L 39.9375 0 
L 39.9375 31.546875 
Q 39.9375 36.921875 38.90625 39.578125 
Q 37.890625 42.234375 35.28125 43.8125 
Q 32.671875 45.40625 29.15625 45.40625 
Q 23.53125 45.40625 19.453125 41.84375 
Q 15.375 38.28125 15.375 28.328125 
L 15.375 0 
z
" id="ArialMT-6e"/>
      </defs>
      <g style="fill:#262626;" transform="translate(517.460802 770.157812)scale(0.1 -0.1)">
       <use xlink:href="#ArialMT-4a"/>
       <use x="50" xlink:href="#ArialMT-75"/>
       <use x="105.615234" xlink:href="#ArialMT-6e"/>
      </g>
     </g>
    </g>
    <g id="xtick_3">
     <g id="line2d_5">
      <path clip-path="url(#p387abc38aa)" d="M 816.652174 756 
L 816.652174 103.68 
" style="fill:none;stroke:#ffffff;stroke-linecap:round;"/>
     </g>
     <g id="line2d_6"/>
     <g id="text_3">
      <!-- Jul -->
      <defs>
       <path d="M 6.390625 0 
L 6.390625 71.578125 
L 15.1875 71.578125 
L 15.1875 0 
z
" id="ArialMT-6c"/>
      </defs>
      <g style="fill:#262626;" transform="translate(810.260768 770.157812)scale(0.1 -0.1)">
       <use xlink:href="#ArialMT-4a"/>
       <use x="50" xlink:href="#ArialMT-75"/>
       <use x="105.615234" xlink:href="#ArialMT-6c"/>
      </g>
     </g>
    </g>
    <g id="xtick_4">
     <g id="line2d_7">
      <path clip-path="url(#p387abc38aa)" d="M 1117.486957 756 
L 1117.486957 103.68 
" style="fill:none;stroke:#ffffff;stroke-linecap:round;"/>
     </g>
     <g id="line2d_8"/>
     <g id="text_4">
      <!-- Aug -->
      <defs>
       <path d="M -0.140625 0 
L 27.34375 71.578125 
L 37.546875 71.578125 
L 66.84375 0 
L 56.0625 0 
L 47.703125 21.6875 
L 17.78125 21.6875 
L 9.90625 0 
z
M 20.515625 29.390625 
L 44.78125 29.390625 
L 37.3125 49.21875 
Q 33.890625 58.25 32.234375 64.0625 
Q 30.859375 57.171875 28.375 50.390625 
z
" id="ArialMT-41"/>
       <path d="M 4.984375 -4.296875 
L 13.53125 -5.5625 
Q 14.0625 -9.515625 16.5 -11.328125 
Q 19.78125 -13.765625 25.4375 -13.765625 
Q 31.546875 -13.765625 34.859375 -11.328125 
Q 38.1875 -8.890625 39.359375 -4.5 
Q 40.046875 -1.8125 39.984375 6.78125 
Q 34.234375 0 25.640625 0 
Q 14.9375 0 9.078125 7.71875 
Q 3.21875 15.4375 3.21875 26.21875 
Q 3.21875 33.640625 5.90625 39.90625 
Q 8.59375 46.1875 13.6875 49.609375 
Q 18.796875 53.03125 25.6875 53.03125 
Q 34.859375 53.03125 40.828125 45.609375 
L 40.828125 51.859375 
L 48.921875 51.859375 
L 48.921875 7.03125 
Q 48.921875 -5.078125 46.453125 -10.125 
Q 44 -15.1875 38.640625 -18.109375 
Q 33.296875 -21.046875 25.484375 -21.046875 
Q 16.21875 -21.046875 10.5 -16.875 
Q 4.78125 -12.703125 4.984375 -4.296875 
z
M 12.25 26.859375 
Q 12.25 16.65625 16.296875 11.96875 
Q 20.359375 7.28125 26.46875 7.28125 
Q 32.515625 7.28125 36.609375 11.9375 
Q 40.71875 16.609375 40.71875 26.5625 
Q 40.71875 36.078125 36.5 40.90625 
Q 32.28125 45.75 26.3125 45.75 
Q 20.453125 45.75 16.34375 40.984375 
Q 12.25 36.234375 12.25 26.859375 
z
" id="ArialMT-67"/>
      </defs>
      <g style="fill:#262626;" transform="translate(1108.590863 770.157812)scale(0.1 -0.1)">
       <use xlink:href="#ArialMT-41"/>
       <use x="66.699219" xlink:href="#ArialMT-75"/>
       <use x="122.314453" xlink:href="#ArialMT-67"/>
      </g>
     </g>
    </g>
    <g id="xtick_5">
     <g id="line2d_9">
      <path clip-path="url(#p387abc38aa)" d="M 1418.321739 756 
L 1418.321739 103.68 
" style="fill:none;stroke:#ffffff;stroke-linecap:round;"/>
     </g>
     <g id="line2d_10"/>
     <g id="text_5">
      <!-- Sep -->
      <defs>
       <path d="M 4.5 23 
L 13.421875 23.78125 
Q 14.0625 18.40625 16.375 14.96875 
Q 18.703125 11.53125 23.578125 9.40625 
Q 28.46875 7.28125 34.578125 7.28125 
Q 39.984375 7.28125 44.140625 8.890625 
Q 48.296875 10.5 50.3125 13.296875 
Q 52.34375 16.109375 52.34375 19.4375 
Q 52.34375 22.796875 50.390625 25.3125 
Q 48.4375 27.828125 43.953125 29.546875 
Q 41.0625 30.671875 31.203125 33.03125 
Q 21.34375 35.40625 17.390625 37.5 
Q 12.25 40.1875 9.734375 44.15625 
Q 7.234375 48.140625 7.234375 53.078125 
Q 7.234375 58.5 10.296875 63.203125 
Q 13.375 67.921875 19.28125 70.359375 
Q 25.203125 72.796875 32.421875 72.796875 
Q 40.375 72.796875 46.453125 70.234375 
Q 52.546875 67.671875 55.8125 62.6875 
Q 59.078125 57.71875 59.328125 51.421875 
L 50.25 50.734375 
Q 49.515625 57.515625 45.28125 60.984375 
Q 41.0625 64.453125 32.8125 64.453125 
Q 24.21875 64.453125 20.28125 61.296875 
Q 16.359375 58.15625 16.359375 53.71875 
Q 16.359375 49.859375 19.140625 47.359375 
Q 21.875 44.875 33.421875 42.265625 
Q 44.96875 39.65625 49.265625 37.703125 
Q 55.515625 34.8125 58.484375 30.390625 
Q 61.46875 25.984375 61.46875 20.21875 
Q 61.46875 14.5 58.203125 9.4375 
Q 54.9375 4.390625 48.796875 1.578125 
Q 42.671875 -1.21875 35.015625 -1.21875 
Q 25.296875 -1.21875 18.71875 1.609375 
Q 12.15625 4.4375 8.421875 10.125 
Q 4.6875 15.828125 4.5 23 
z
" id="ArialMT-53"/>
       <path d="M 42.09375 16.703125 
L 51.171875 15.578125 
Q 49.03125 7.625 43.21875 3.21875 
Q 37.40625 -1.171875 28.375 -1.171875 
Q 17 -1.171875 10.328125 5.828125 
Q 3.65625 12.84375 3.65625 25.484375 
Q 3.65625 38.578125 10.390625 45.796875 
Q 17.140625 53.03125 27.875 53.03125 
Q 38.28125 53.03125 44.875 45.953125 
Q 51.46875 38.875 51.46875 26.03125 
Q 51.46875 25.25 51.421875 23.6875 
L 12.75 23.6875 
Q 13.234375 15.140625 17.578125 10.59375 
Q 21.921875 6.0625 28.421875 6.0625 
Q 33.25 6.0625 36.671875 8.59375 
Q 40.09375 11.140625 42.09375 16.703125 
z
M 13.234375 30.90625 
L 42.1875 30.90625 
Q 41.609375 37.453125 38.875 40.71875 
Q 34.671875 45.796875 27.984375 45.796875 
Q 21.921875 45.796875 17.796875 41.75 
Q 13.671875 37.703125 13.234375 30.90625 
z
" id="ArialMT-65"/>
       <path d="M 6.59375 -19.875 
L 6.59375 51.859375 
L 14.59375 51.859375 
L 14.59375 45.125 
Q 17.4375 49.078125 21 51.046875 
Q 24.5625 53.03125 29.640625 53.03125 
Q 36.28125 53.03125 41.359375 49.609375 
Q 46.4375 46.1875 49.015625 39.953125 
Q 51.609375 33.734375 51.609375 26.3125 
Q 51.609375 18.359375 48.75 11.984375 
Q 45.90625 5.609375 40.453125 2.21875 
Q 35.015625 -1.171875 29 -1.171875 
Q 24.609375 -1.171875 21.109375 0.6875 
Q 17.625 2.546875 15.375 5.375 
L 15.375 -19.875 
z
M 14.546875 25.640625 
Q 14.546875 15.625 18.59375 10.84375 
Q 22.65625 6.0625 28.421875 6.0625 
Q 34.28125 6.0625 38.453125 11.015625 
Q 42.625 15.96875 42.625 26.375 
Q 42.625 36.28125 38.546875 41.203125 
Q 34.46875 46.140625 28.8125 46.140625 
Q 23.1875 46.140625 18.859375 40.890625 
Q 14.546875 35.640625 14.546875 25.640625 
z
" id="ArialMT-70"/>
      </defs>
      <g style="fill:#262626;" transform="translate(1409.425645 770.279688)scale(0.1 -0.1)">
       <use xlink:href="#ArialMT-53"/>
       <use x="66.699219" xlink:href="#ArialMT-65"/>
       <use x="122.314453" xlink:href="#ArialMT-70"/>
      </g>
     </g>
    </g>
    <g id="xtick_6">
     <g id="line2d_11"/>
    </g>
    <g id="xtick_7">
     <g id="line2d_12"/>
    </g>
    <g id="xtick_8">
     <g id="line2d_13"/>
    </g>
    <g id="xtick_9">
     <g id="line2d_14"/>
    </g>
    <g id="xtick_10">
     <g id="line2d_15"/>
    </g>
    <g id="xtick_11">
     <g id="line2d_16"/>
    </g>
    <g id="xtick_12">
     <g id="line2d_17"/>
    </g>
    <g id="xtick_13">
     <g id="line2d_18"/>
    </g>
    <g id="xtick_14">
     <g id="line2d_19"/>
    </g>
    <g id="xtick_15">
     <g id="line2d_20"/>
    </g>
    <g id="xtick_16">
     <g id="line2d_21"/>
    </g>
    <g id="xtick_17">
     <g id="line2d_22"/>
    </g>
    <g id="xtick_18">
     <g id="line2d_23"/>
    </g>
    <g id="xtick_19">
     <g id="line2d_24"/>
    </g>
    <g id="xtick_20">
     <g id="line2d_25"/>
    </g>
    <g id="xtick_21">
     <g id="line2d_26"/>
    </g>
    <g id="xtick_22">
     <g id="line2d_27"/>
    </g>
    <g id="xtick_23">
     <g id="line2d_28"/>
    </g>
    <g id="text_6">
     <!-- datetime -->
     <defs>
      <path d="M 40.234375 0 
L 40.234375 6.546875 
Q 35.296875 -1.171875 25.734375 -1.171875 
Q 19.53125 -1.171875 14.328125 2.25 
Q 9.125 5.671875 6.265625 11.796875 
Q 3.421875 17.921875 3.421875 25.875 
Q 3.421875 33.640625 6 39.96875 
Q 8.59375 46.296875 13.765625 49.65625 
Q 18.953125 53.03125 25.34375 53.03125 
Q 30.03125 53.03125 33.6875 51.046875 
Q 37.359375 49.078125 39.65625 45.90625 
L 39.65625 71.578125 
L 48.390625 71.578125 
L 48.390625 0 
z
M 12.453125 25.875 
Q 12.453125 15.921875 16.640625 10.984375 
Q 20.84375 6.0625 26.5625 6.0625 
Q 32.328125 6.0625 36.34375 10.765625 
Q 40.375 15.484375 40.375 25.140625 
Q 40.375 35.796875 36.265625 40.765625 
Q 32.171875 45.75 26.171875 45.75 
Q 20.3125 45.75 16.375 40.96875 
Q 12.453125 36.1875 12.453125 25.875 
z
" id="ArialMT-64"/>
      <path d="M 25.78125 7.859375 
L 27.046875 0.09375 
Q 23.34375 -0.6875 20.40625 -0.6875 
Q 15.625 -0.6875 12.984375 0.828125 
Q 10.359375 2.34375 9.28125 4.8125 
Q 8.203125 7.28125 8.203125 15.1875 
L 8.203125 45.015625 
L 1.765625 45.015625 
L 1.765625 51.859375 
L 8.203125 51.859375 
L 8.203125 64.703125 
L 16.9375 69.96875 
L 16.9375 51.859375 
L 25.78125 51.859375 
L 25.78125 45.015625 
L 16.9375 45.015625 
L 16.9375 14.703125 
Q 16.9375 10.9375 17.40625 9.859375 
Q 17.875 8.796875 18.921875 8.15625 
Q 19.96875 7.515625 21.921875 7.515625 
Q 23.390625 7.515625 25.78125 7.859375 
z
" id="ArialMT-74"/>
      <path d="M 6.640625 61.46875 
L 6.640625 71.578125 
L 15.4375 71.578125 
L 15.4375 61.46875 
z
M 6.640625 0 
L 6.640625 51.859375 
L 15.4375 51.859375 
L 15.4375 0 
z
" id="ArialMT-69"/>
      <path d="M 6.59375 0 
L 6.59375 51.859375 
L 14.453125 51.859375 
L 14.453125 44.578125 
Q 16.890625 48.390625 20.9375 50.703125 
Q 25 53.03125 30.171875 53.03125 
Q 35.9375 53.03125 39.625 50.640625 
Q 43.3125 48.25 44.828125 43.953125 
Q 50.984375 53.03125 60.84375 53.03125 
Q 68.5625 53.03125 72.703125 48.75 
Q 76.859375 44.484375 76.859375 35.59375 
L 76.859375 0 
L 68.109375 0 
L 68.109375 32.671875 
Q 68.109375 37.9375 67.25 40.25 
Q 66.40625 42.578125 64.15625 43.984375 
Q 61.921875 45.40625 58.890625 45.40625 
Q 53.421875 45.40625 49.796875 41.765625 
Q 46.1875 38.140625 46.1875 30.125 
L 46.1875 0 
L 37.40625 0 
L 37.40625 33.6875 
Q 37.40625 39.546875 35.25 42.46875 
Q 33.109375 45.40625 28.21875 45.40625 
Q 24.515625 45.40625 21.359375 43.453125 
Q 18.21875 41.5 16.796875 37.734375 
Q 15.375 33.984375 15.375 26.90625 
L 15.375 0 
z
" id="ArialMT-6d"/>
     </defs>
     <g style="fill:#262626;" transform="translate(790.706641 794.830156)scale(0.11 -0.11)">
      <use xlink:href="#ArialMT-64"/>
      <use x="55.615234" xlink:href="#ArialMT-61"/>
      <use x="111.230469" xlink:href="#ArialMT-74"/>
      <use x="139.013672" xlink:href="#ArialMT-65"/>
      <use x="194.628906" xlink:href="#ArialMT-74"/>
      <use x="222.412109" xlink:href="#ArialMT-69"/>
      <use x="244.628906" xlink:href="#ArialMT-6d"/>
      <use x="327.929688" xlink:href="#ArialMT-65"/>
     </g>
    </g>
   </g>
   <g id="matplotlib.axis_2">
    <g id="ytick_1">
     <g id="line2d_29">
      <path clip-path="url(#p387abc38aa)" d="M 198 705.452283 
L 1425.6 705.452283 
" style="fill:none;stroke:#ffffff;stroke-linecap:round;"/>
     </g>
     <g id="line2d_30"/>
     <g id="text_7">
      <!-- 0.4 -->
      <defs>
       <path d="M 9.078125 0 
L 9.078125 10.015625 
L 19.09375 10.015625 
L 19.09375 0 
z
" id="ArialMT-2e"/>
       <path d="M 32.328125 0 
L 32.328125 17.140625 
L 1.265625 17.140625 
L 1.265625 25.203125 
L 33.9375 71.578125 
L 41.109375 71.578125 
L 41.109375 25.203125 
L 50.78125 25.203125 
L 50.78125 17.140625 
L 41.109375 17.140625 
L 41.109375 0 
z
M 32.328125 25.203125 
L 32.328125 57.46875 
L 9.90625 25.203125 
z
" id="ArialMT-34"/>
      </defs>
      <g style="fill:#262626;" transform="translate(177.1 709.03119)scale(0.1 -0.1)">
       <use xlink:href="#ArialMT-30"/>
       <use x="55.615234" xlink:href="#ArialMT-2e"/>
       <use x="83.398438" xlink:href="#ArialMT-34"/>
      </g>
     </g>
    </g>
    <g id="ytick_2">
     <g id="line2d_31">
      <path clip-path="url(#p387abc38aa)" d="M 198 623.138694 
L 1425.6 623.138694 
" style="fill:none;stroke:#ffffff;stroke-linecap:round;"/>
     </g>
     <g id="line2d_32"/>
     <g id="text_8">
      <!-- 0.6 -->
      <defs>
       <path d="M 49.75 54.046875 
L 41.015625 53.375 
Q 39.84375 58.546875 37.703125 60.890625 
Q 34.125 64.65625 28.90625 64.65625 
Q 24.703125 64.65625 21.53125 62.3125 
Q 17.390625 59.28125 14.984375 53.46875 
Q 12.59375 47.65625 12.5 36.921875 
Q 15.671875 41.75 20.265625 44.09375 
Q 24.859375 46.4375 29.890625 46.4375 
Q 38.671875 46.4375 44.84375 39.96875 
Q 51.03125 33.5 51.03125 23.25 
Q 51.03125 16.5 48.125 10.71875 
Q 45.21875 4.9375 40.140625 1.859375 
Q 35.0625 -1.21875 28.609375 -1.21875 
Q 17.625 -1.21875 10.6875 6.859375 
Q 3.765625 14.9375 3.765625 33.5 
Q 3.765625 54.25 11.421875 63.671875 
Q 18.109375 71.875 29.4375 71.875 
Q 37.890625 71.875 43.28125 67.140625 
Q 48.6875 62.40625 49.75 54.046875 
z
M 13.875 23.1875 
Q 13.875 18.65625 15.796875 14.5 
Q 17.71875 10.359375 21.1875 8.171875 
Q 24.65625 6 28.46875 6 
Q 34.03125 6 38.03125 10.484375 
Q 42.046875 14.984375 42.046875 22.703125 
Q 42.046875 30.125 38.078125 34.390625 
Q 34.125 38.671875 28.125 38.671875 
Q 22.171875 38.671875 18.015625 34.390625 
Q 13.875 30.125 13.875 23.1875 
z
" id="ArialMT-36"/>
      </defs>
      <g style="fill:#262626;" transform="translate(177.1 626.7176)scale(0.1 -0.1)">
       <use xlink:href="#ArialMT-30"/>
       <use x="55.615234" xlink:href="#ArialMT-2e"/>
       <use x="83.398438" xlink:href="#ArialMT-36"/>
      </g>
     </g>
    </g>
    <g id="ytick_3">
     <g id="line2d_33">
      <path clip-path="url(#p387abc38aa)" d="M 198 540.825104 
L 1425.6 540.825104 
" style="fill:none;stroke:#ffffff;stroke-linecap:round;"/>
     </g>
     <g id="line2d_34"/>
     <g id="text_9">
      <!-- 0.8 -->
      <g style="fill:#262626;" transform="translate(177.1 544.404011)scale(0.1 -0.1)">
       <use xlink:href="#ArialMT-30"/>
       <use x="55.615234" xlink:href="#ArialMT-2e"/>
       <use x="83.398438" xlink:href="#ArialMT-38"/>
      </g>
     </g>
    </g>
    <g id="ytick_4">
     <g id="line2d_35">
      <path clip-path="url(#p387abc38aa)" d="M 198 458.511515 
L 1425.6 458.511515 
" style="fill:none;stroke:#ffffff;stroke-linecap:round;"/>
     </g>
     <g id="line2d_36"/>
     <g id="text_10">
      <!-- 1.0 -->
      <g style="fill:#262626;" transform="translate(177.1 462.090421)scale(0.1 -0.1)">
       <use xlink:href="#ArialMT-31"/>
       <use x="55.615234" xlink:href="#ArialMT-2e"/>
       <use x="83.398438" xlink:href="#ArialMT-30"/>
      </g>
     </g>
    </g>
    <g id="ytick_5">
     <g id="line2d_37">
      <path clip-path="url(#p387abc38aa)" d="M 198 376.197926 
L 1425.6 376.197926 
" style="fill:none;stroke:#ffffff;stroke-linecap:round;"/>
     </g>
     <g id="line2d_38"/>
     <g id="text_11">
      <!-- 1.2 -->
      <g style="fill:#262626;" transform="translate(177.1 379.776832)scale(0.1 -0.1)">
       <use xlink:href="#ArialMT-31"/>
       <use x="55.615234" xlink:href="#ArialMT-2e"/>
       <use x="83.398438" xlink:href="#ArialMT-32"/>
      </g>
     </g>
    </g>
    <g id="ytick_6">
     <g id="line2d_39">
      <path clip-path="url(#p387abc38aa)" d="M 198 293.884336 
L 1425.6 293.884336 
" style="fill:none;stroke:#ffffff;stroke-linecap:round;"/>
     </g>
     <g id="line2d_40"/>
     <g id="text_12">
      <!-- 1.4 -->
      <g style="fill:#262626;" transform="translate(177.1 297.463242)scale(0.1 -0.1)">
       <use xlink:href="#ArialMT-31"/>
       <use x="55.615234" xlink:href="#ArialMT-2e"/>
       <use x="83.398438" xlink:href="#ArialMT-34"/>
      </g>
     </g>
    </g>
    <g id="ytick_7">
     <g id="line2d_41">
      <path clip-path="url(#p387abc38aa)" d="M 198 211.570747 
L 1425.6 211.570747 
" style="fill:none;stroke:#ffffff;stroke-linecap:round;"/>
     </g>
     <g id="line2d_42"/>
     <g id="text_13">
      <!-- 1.6 -->
      <g style="fill:#262626;" transform="translate(177.1 215.149653)scale(0.1 -0.1)">
       <use xlink:href="#ArialMT-31"/>
       <use x="55.615234" xlink:href="#ArialMT-2e"/>
       <use x="83.398438" xlink:href="#ArialMT-36"/>
      </g>
     </g>
    </g>
    <g id="ytick_8">
     <g id="line2d_43">
      <path clip-path="url(#p387abc38aa)" d="M 198 129.257157 
L 1425.6 129.257157 
" style="fill:none;stroke:#ffffff;stroke-linecap:round;"/>
     </g>
     <g id="line2d_44"/>
     <g id="text_14">
      <!-- 1.8 -->
      <g style="fill:#262626;" transform="translate(177.1 132.836064)scale(0.1 -0.1)">
       <use xlink:href="#ArialMT-31"/>
       <use x="55.615234" xlink:href="#ArialMT-2e"/>
       <use x="83.398438" xlink:href="#ArialMT-38"/>
      </g>
     </g>
    </g>
   </g>
   <g id="line2d_45">
    <path clip-path="url(#p387abc38aa)" d="M 253.8 457.728467 
L 263.504348 439.810536 
L 273.208696 452.939381 
L 282.913043 473.661443 
L 292.617391 474.568206 
L 302.321739 474.524299 
L 312.026087 487.634064 
L 321.730435 512.668805 
L 331.434783 509.045078 
L 341.13913 486.476871 
L 350.843478 486.166473 
L 360.547826 497.27234 
L 370.252174 497.448452 
L 379.956522 516.319982 
L 389.66087 504.502211 
L 399.365217 503.254658 
L 409.069565 492.92702 
L 418.773913 502.208738 
L 428.478261 529.654512 
L 438.182609 563.591967 
L 447.886957 553.49365 
L 457.591304 561.836618 
L 467.295652 560.467469 
L 477 569.162456 
L 486.704348 598.671378 
L 496.408696 572.136444 
L 506.113043 575.251847 
L 515.817391 565.962228 
L 525.521739 564.550791 
L 535.226087 558.051823 
L 544.930435 543.808007 
L 554.634783 557.538508 
L 564.33913 549.655546 
L 574.043478 550.267994 
L 583.747826 551.977269 
L 593.452174 553.809433 
L 603.156522 556.760714 
L 612.86087 593.56068 
L 622.565217 590.151816 
L 632.269565 607.565365 
L 641.973913 618.906481 
L 651.678261 596.165962 
L 661.382609 613.458282 
L 671.086957 607.31436 
L 680.791304 607.531656 
L 690.495652 597.107475 
L 700.2 587.006385 
L 709.904348 587.385229 
L 719.608696 591.838025 
L 729.313043 623.197721 
L 739.017391 619.527551 
L 748.721739 629.516661 
L 758.426087 628.099828 
L 768.130435 643.21079 
L 777.834783 637.362682 
L 787.53913 647.829861 
L 797.243478 640.765846 
L 806.947826 630.886777 
L 816.652174 632.117872 
L 826.356522 619.202188 
L 836.06087 626.514048 
L 845.765217 624.25427 
L 855.469565 623.121496 
L 865.173913 622.043202 
L 874.878261 614.110624 
L 884.582609 613.153267 
L 894.286957 620.747383 
L 903.991304 641.6534 
L 913.695652 634.162245 
L 923.4 643.465231 
L 933.104348 641.564015 
L 942.808696 640.01693 
L 952.513043 631.753041 
L 962.217391 616.059147 
L 971.921739 605.545661 
L 981.626087 616.00172 
L 991.330435 622.22766 
L 1001.034783 632.657825 
L 1010.73913 625.614067 
L 1020.443478 626.72728 
L 1030.147826 632.156586 
L 1039.852174 617.617113 
L 1049.556522 620.928528 
L 1059.26087 625.295872 
L 1068.965217 622.861398 
L 1078.669565 623.993585 
L 1088.373913 624.575678 
L 1098.078261 629.106829 
L 1107.782609 641.475275 
L 1117.486957 648.670616 
L 1127.191304 653.264836 
L 1136.895652 650.02538 
L 1146.6 655.678627 
L 1156.304348 654.66725 
L 1166.008696 656.982853 
L 1175.713043 670.347572 
L 1185.417391 683.331708 
L 1195.121739 678.294922 
L 1204.826087 694.528416 
L 1214.530435 701.359188 
L 1224.234783 702.559374 
L 1233.93913 720.010553 
L 1243.643478 724.451147 
L 1253.347826 721.484351 
L 1263.052174 718.943884 
L 1272.756522 703.796103 
L 1282.46087 714.802187 
L 1292.165217 711.67211 
L 1301.869565 725.620597 
L 1311.573913 721.536088 
L 1321.278261 726.349091 
L 1330.982609 723.694195 
L 1340.686957 720.735096 
L 1350.391304 723.861554 
L 1360.095652 725.359844 
L 1369.8 719.439351 
" style="fill:none;stroke:#4c72b0;stroke-linecap:round;stroke-width:1.75;"/>
   </g>
   <g id="line2d_46">
    <path clip-path="url(#p387abc38aa)" d="M 253.8 457.728467 
L 263.504348 439.810536 
L 273.208696 452.939381 
L 282.913043 473.661443 
L 292.617391 474.568206 
L 302.321739 474.524299 
L 312.026087 487.634064 
L 321.730435 460.84577 
L 331.434783 464.953277 
L 341.13913 488.787765 
L 350.843478 488.479236 
L 360.547826 499.518199 
L 370.252174 499.343065 
L 379.956522 479.565891 
L 389.66087 492.189761 
L 399.365217 493.474945 
L 409.069565 503.78758 
L 418.773913 512.80202 
L 428.478261 483.997564 
L 438.182609 441.246595 
L 447.886957 454.92532 
L 457.591304 443.688668 
L 467.295652 445.574229 
L 477 433.308165 
L 486.704348 385.820079 
L 496.408696 428.948431 
L 506.113043 424.287059 
L 515.817391 437.904312 
L 525.521739 439.900813 
L 535.226087 448.860651 
L 544.930435 467.249521 
L 554.634783 484.201839 
L 564.33913 493.695071 
L 574.043478 492.974284 
L 583.747826 490.947965 
L 593.452174 488.751643 
L 603.156522 485.159755 
L 612.86087 433.933463 
L 622.565217 439.244701 
L 632.269565 410.665808 
L 641.973913 389.922083 
L 651.678261 429.785134 
L 661.382609 400.116069 
L 671.086957 411.10466 
L 680.791304 410.724793 
L 690.495652 428.266506 
L 700.2 444.032019 
L 709.904348 443.461065 
L 719.608696 436.633741 
L 729.313043 381.5761 
L 739.017391 388.731863 
L 748.721739 368.744426 
L 758.426087 371.679829 
L 768.130435 338.4831 
L 777.834783 351.841969 
L 787.53913 327.434797 
L 797.243478 344.150986 
L 806.947826 365.872737 
L 816.652174 363.264222 
L 826.356522 389.356124 
L 836.06087 374.924759 
L 845.765217 379.476529 
L 855.469565 381.726879 
L 865.173913 383.849906 
L 874.878261 398.918357 
L 884.582609 397.156154 
L 894.286957 411.13462 
L 903.991304 369.131056 
L 913.695652 385.037832 
L 923.4 365.125862 
L 933.104348 369.327004 
L 942.808696 372.694378 
L 952.513043 389.941039 
L 962.217391 419.604973 
L 971.921739 400.96057 
L 981.626087 419.503133 
L 991.330435 430.54409 
L 1001.034783 449.040733 
L 1010.73913 461.172082 
L 1020.443478 459.301538 
L 1030.147826 449.927748 
L 1039.852174 474.124562 
L 1049.556522 479.318093 
L 1059.26087 486.167713 
L 1068.965217 489.948274 
L 1078.669565 491.689165 
L 1088.373913 492.584212 
L 1098.078261 485.485946 
L 1107.782609 464.677822 
L 1117.486957 451.503086 
L 1127.191304 442.633611 
L 1136.895652 448.926118 
L 1146.6 437.821294 
L 1156.304348 439.850779 
L 1166.008696 435.175721 
L 1175.713043 406.074878 
L 1185.417391 373.813722 
L 1195.121739 386.847017 
L 1204.826087 342.161717 
L 1214.530435 320.788556 
L 1224.234783 316.853197 
L 1233.93913 252.519748 
L 1243.643478 233.688713 
L 1253.347826 246.394659 
L 1263.052174 256.878297 
L 1272.756522 312.738591 
L 1282.46087 273.234157 
L 1292.165217 285.027623 
L 1301.869565 228.536887 
L 1311.573913 246.177435 
L 1321.278261 225.285243 
L 1330.982609 236.979464 
L 1340.686957 249.523662 
L 1350.391304 236.254824 
L 1360.095652 229.692804 
L 1369.8 254.861432 
" style="fill:none;stroke:#55a868;stroke-linecap:round;stroke-width:1.75;"/>
   </g>
   <g id="line2d_47">
    <path clip-path="url(#p387abc38aa)" d="M 253.8 457.728467 
L 263.504348 439.810536 
L 273.208696 452.939381 
L 282.913043 473.661443 
L 292.617391 474.568206 
L 302.321739 474.524299 
L 312.026087 487.634064 
L 321.730435 512.668805 
L 331.434783 516.256161 
L 341.13913 537.072384 
L 350.843478 536.802926 
L 360.547826 546.443977 
L 370.252174 546.291021 
L 379.956522 529.018316 
L 389.66087 540.043571 
L 399.365217 541.166006 
L 409.069565 550.172707 
L 418.773913 558.04561 
L 428.478261 532.888787 
L 438.182609 495.551559 
L 447.886957 507.498087 
L 457.591304 497.684381 
L 467.295652 499.331166 
L 477 488.618406 
L 486.704348 447.143942 
L 496.408696 484.810764 
L 506.113043 480.739682 
L 515.817391 492.632523 
L 525.521739 494.376198 
L 535.226087 502.201413 
L 544.930435 518.261621 
L 554.634783 502.805614 
L 564.33913 511.841162 
L 574.043478 511.155125 
L 583.747826 509.226499 
L 593.452174 507.136065 
L 603.156522 503.717348 
L 612.86087 454.960756 
L 622.565217 460.015931 
L 632.269565 432.814873 
L 641.973913 413.071235 
L 651.678261 451.012425 
L 661.382609 422.773753 
L 671.086957 433.232567 
L 680.791304 432.871014 
L 690.495652 449.567013 
L 700.2 464.572445 
L 709.904348 464.029018 
L 719.608696 457.53085 
L 729.313043 405.127625 
L 739.017391 411.938398 
L 748.721739 392.914587 
L 758.426087 395.70847 
L 768.130435 364.112208 
L 777.834783 376.827024 
L 787.53913 353.596561 
L 797.243478 369.506836 
L 806.947826 390.181347 
L 816.652174 387.698592 
L 826.356522 412.532562 
L 836.06087 398.796956 
L 845.765217 403.129278 
L 855.469565 405.271135 
L 865.173913 407.291808 
L 874.878261 421.633785 
L 884.582609 423.30478 
L 894.286957 409.69699 
L 903.991304 367.561852 
L 913.695652 383.518455 
L 923.4 363.544111 
L 933.104348 367.758414 
L 942.808696 371.136336 
L 952.513043 388.437021 
L 962.217391 418.193876 
L 971.921739 436.153368 
L 981.626087 453.304887 
L 991.330435 442.835673 
L 1001.034783 424.066435 
L 1010.73913 436.917366 
L 1020.443478 434.935869 
L 1030.147826 425.006064 
L 1039.852174 450.638134 
L 1049.556522 445.063423 
L 1059.26087 437.480435 
L 1068.965217 441.740444 
L 1078.669565 439.76975 
L 1088.373913 438.749479 
L 1098.078261 430.638927 
L 1107.782609 406.863349 
L 1117.486957 391.80976 
L 1127.191304 381.675405 
L 1136.895652 388.865289 
L 1146.6 376.176802 
L 1156.304348 378.495713 
L 1166.008696 373.153943 
L 1175.713043 339.903018 
L 1185.417391 303.041088 
L 1195.121739 317.933066 
L 1204.826087 266.875179 
L 1214.530435 242.453984 
L 1224.234783 237.957402 
L 1233.93913 164.449337 
L 1243.643478 142.932801 
L 1253.347826 157.450747 
L 1263.052174 169.429459 
L 1272.756522 233.25601 
L 1282.46087 188.117834 
L 1292.165217 201.593171 
L 1301.869565 137.046271 
L 1311.573913 157.202544 
L 1321.278261 133.330909 
L 1330.982609 146.692847 
L 1340.686957 161.025978 
L 1350.391304 145.864866 
L 1360.095652 138.367034 
L 1369.8 167.124969 
" style="fill:none;stroke:#c44e52;stroke-linecap:round;stroke-width:1.75;"/>
   </g>
   <g id="line2d_48">
    <path clip-path="url(#p387abc38aa)" d="M 253.8 457.728467 
L 263.504348 439.810536 
L 273.208696 452.939381 
L 282.913043 473.661443 
L 292.617391 474.568206 
L 302.321739 474.524299 
L 312.026087 487.634064 
L 321.730435 512.668805 
L 331.434783 516.256161 
L 341.13913 537.072384 
L 350.843478 536.802926 
L 360.547826 546.443977 
L 370.252174 546.596861 
L 379.956522 562.979318 
L 389.66087 572.906739 
L 399.365217 573.917408 
L 409.069565 582.027272 
L 418.773913 589.116234 
L 428.478261 566.464389 
L 438.182609 532.844998 
L 447.886957 543.601957 
L 457.591304 534.765446 
L 467.295652 536.248252 
L 477 526.602211 
L 486.704348 489.257547 
L 496.408696 523.173713 
L 506.113043 519.508007 
L 515.817391 530.216624 
L 525.521739 531.786673 
L 535.226087 538.832697 
L 544.930435 553.293717 
L 554.634783 539.376734 
L 564.33913 547.512572 
L 574.043478 546.894847 
L 583.747826 545.158263 
L 593.452174 543.275982 
L 603.156522 540.197682 
L 612.86087 496.296005 
L 622.565217 500.847814 
L 632.269565 476.355288 
L 641.973913 458.577613 
L 651.678261 492.740828 
L 661.382609 467.314008 
L 671.086957 476.73139 
L 680.791304 476.405839 
L 690.495652 491.439341 
L 700.2 504.950615 
L 709.904348 504.461299 
L 719.608696 498.610183 
L 729.313043 451.424985 
L 739.017391 457.557578 
L 748.721739 440.428055 
L 758.426087 442.943738 
L 768.130435 414.493659 
L 777.834783 425.942403 
L 787.53913 405.025102 
L 797.243478 419.351119 
L 806.947826 437.966975 
L 816.652174 435.73144 
L 826.356522 458.092579 
L 836.06087 445.724689 
L 845.765217 449.625622 
L 855.469565 451.554205 
L 865.173913 453.37367 
L 874.878261 466.287552 
L 884.582609 467.792158 
L 894.286957 455.539358 
L 903.991304 417.599806 
L 913.695652 431.967537 
L 923.4 413.98213 
L 933.104348 417.776795 
L 942.808696 420.818362 
L 952.513043 436.39634 
L 962.217391 463.19017 
L 971.921739 479.361354 
L 981.626087 463.282136 
L 991.330435 453.063546 
L 1001.034783 434.743629 
L 1010.73913 447.286919 
L 1020.443478 445.352857 
L 1030.147826 435.660764 
L 1039.852174 460.679223 
L 1049.556522 455.237966 
L 1059.26087 447.836509 
L 1068.965217 451.994536 
L 1078.669565 450.071019 
L 1088.373913 449.075173 
L 1098.078261 441.158781 
L 1107.782609 417.952371 
L 1117.486957 403.259153 
L 1127.191304 393.367406 
L 1136.895652 400.38517 
L 1146.6 388.000435 
L 1156.304348 390.263834 
L 1166.008696 385.049941 
L 1175.713043 352.595017 
L 1185.417391 316.615531 
L 1195.121739 331.151007 
L 1204.826087 281.315405 
L 1214.530435 257.478834 
L 1224.234783 253.089896 
L 1233.93913 181.341555 
L 1243.643478 160.340109 
L 1253.347826 174.510506 
L 1263.052174 186.202458 
L 1272.756522 248.501052 
L 1282.46087 204.443448 
L 1292.165217 217.596196 
L 1301.869565 154.594497 
L 1311.573913 174.268245 
L 1321.278261 150.968078 
L 1330.982609 164.010142 
L 1340.686957 178.000149 
L 1350.391304 163.201982 
L 1360.095652 155.883642 
L 1369.8 183.953135 
" style="fill:none;stroke:#8172b2;stroke-linecap:round;stroke-width:1.75;"/>
   </g>
   <g id="line2d_49">
    <path clip-path="url(#p387abc38aa)" d="M 253.8 457.728467 
L 263.504348 439.810536 
L 273.208696 452.939381 
L 282.913043 473.661443 
L 292.617391 474.568206 
L 302.321739 474.524299 
L 312.026087 487.634064 
L 321.730435 512.668805 
L 331.434783 516.256161 
L 341.13913 537.072384 
L 350.843478 536.802926 
L 360.547826 546.443977 
L 370.252174 546.596861 
L 379.956522 562.979318 
L 389.66087 572.906739 
L 399.365217 573.917408 
L 409.069565 582.027272 
L 418.773913 589.116234 
L 428.478261 566.464389 
L 438.182609 532.844998 
L 447.886957 543.601957 
L 457.591304 534.765446 
L 467.295652 536.248252 
L 477 526.602211 
L 486.704348 489.257547 
L 496.408696 523.173713 
L 506.113043 519.508007 
L 515.817391 530.216624 
L 525.521739 531.786673 
L 535.226087 538.832697 
L 544.930435 553.293717 
L 554.634783 539.376734 
L 564.33913 547.512572 
L 574.043478 546.894847 
L 583.747826 545.158263 
L 593.452174 543.275982 
L 603.156522 540.197682 
L 612.86087 496.296005 
L 622.565217 500.847814 
L 632.269565 476.355288 
L 641.973913 458.577613 
L 651.678261 492.740828 
L 661.382609 467.314008 
L 671.086957 476.73139 
L 680.791304 476.405839 
L 690.495652 491.439341 
L 700.2 504.950615 
L 709.904348 504.461299 
L 719.608696 498.610183 
L 729.313043 451.424985 
L 739.017391 457.557578 
L 748.721739 440.428055 
L 758.426087 442.943738 
L 768.130435 414.493659 
L 777.834783 425.942403 
L 787.53913 405.025102 
L 797.243478 419.351119 
L 806.947826 437.966975 
L 816.652174 435.73144 
L 826.356522 458.092579 
L 836.06087 445.724689 
L 845.765217 449.625622 
L 855.469565 451.554205 
L 865.173913 453.37367 
L 874.878261 466.287552 
L 884.582609 467.792158 
L 894.286957 455.539358 
L 903.991304 417.599806 
L 913.695652 431.967537 
L 923.4 413.98213 
L 933.104348 417.776795 
L 942.808696 420.818362 
L 952.513043 436.39634 
L 962.217391 463.19017 
L 971.921739 479.361354 
L 981.626087 463.282136 
L 991.330435 453.063546 
L 1001.034783 434.743629 
L 1010.73913 447.286919 
L 1020.443478 445.352857 
L 1030.147826 435.660764 
L 1039.852174 460.679223 
L 1049.556522 455.237966 
L 1059.26087 447.836509 
L 1068.965217 451.994536 
L 1078.669565 450.071019 
L 1088.373913 449.075173 
L 1098.078261 441.158781 
L 1107.782609 417.952371 
L 1117.486957 403.259153 
L 1127.191304 393.367406 
L 1136.895652 400.38517 
L 1146.6 388.000435 
L 1156.304348 390.263834 
L 1166.008696 385.049941 
L 1175.713043 352.595017 
L 1185.417391 316.615531 
L 1195.121739 331.151007 
L 1204.826087 281.315405 
L 1214.530435 257.478834 
L 1224.234783 253.089896 
L 1233.93913 181.341555 
L 1243.643478 160.340109 
L 1253.347826 174.510506 
L 1263.052174 186.202458 
L 1272.756522 248.501052 
L 1282.46087 204.443448 
L 1292.165217 217.596196 
L 1301.869565 154.594497 
L 1311.573913 174.268245 
L 1321.278261 150.968078 
L 1330.982609 164.010142 
L 1340.686957 178.000149 
L 1350.391304 163.201982 
L 1360.095652 155.883642 
L 1369.8 183.953135 
" style="fill:none;stroke:#ccb974;stroke-linecap:round;stroke-width:1.75;"/>
   </g>
   <g id="patch_3">
    <path d="M 198 756 
L 198 103.68 
" style="fill:none;"/>
   </g>
   <g id="patch_4">
    <path d="M 1425.6 756 
L 1425.6 103.68 
" style="fill:none;"/>
   </g>
   <g id="patch_5">
    <path d="M 198 756 
L 1425.6 756 
" style="fill:none;"/>
   </g>
   <g id="patch_6">
    <path d="M 198 103.68 
L 1425.6 103.68 
" style="fill:none;"/>
   </g>
   <g id="legend_1">
    <g id="line2d_50">
     <path d="M 207 116.337812 
L 227 116.337812 
" style="fill:none;stroke:#4c72b0;stroke-linecap:round;stroke-width:1.75;"/>
    </g>
    <g id="line2d_51"/>
    <g id="text_15">
     <!-- returns -->
     <defs>
      <path d="M 6.5 0 
L 6.5 51.859375 
L 14.40625 51.859375 
L 14.40625 44 
Q 17.4375 49.515625 20 51.265625 
Q 22.5625 53.03125 25.640625 53.03125 
Q 30.078125 53.03125 34.671875 50.203125 
L 31.640625 42.046875 
Q 28.421875 43.953125 25.203125 43.953125 
Q 22.3125 43.953125 20.015625 42.21875 
Q 17.71875 40.484375 16.75 37.40625 
Q 15.28125 32.71875 15.28125 27.15625 
L 15.28125 0 
z
" id="ArialMT-72"/>
      <path d="M 3.078125 15.484375 
L 11.765625 16.84375 
Q 12.5 11.625 15.84375 8.84375 
Q 19.1875 6.0625 25.203125 6.0625 
Q 31.25 6.0625 34.171875 8.515625 
Q 37.109375 10.984375 37.109375 14.3125 
Q 37.109375 17.28125 34.515625 19 
Q 32.71875 20.171875 25.53125 21.96875 
Q 15.875 24.421875 12.140625 26.203125 
Q 8.40625 27.984375 6.46875 31.125 
Q 4.546875 34.28125 4.546875 38.09375 
Q 4.546875 41.546875 6.125 44.5 
Q 7.71875 47.46875 10.453125 49.421875 
Q 12.5 50.921875 16.03125 51.96875 
Q 19.578125 53.03125 23.640625 53.03125 
Q 29.734375 53.03125 34.34375 51.265625 
Q 38.96875 49.515625 41.15625 46.5 
Q 43.359375 43.5 44.1875 38.484375 
L 35.59375 37.3125 
Q 35.015625 41.3125 32.203125 43.546875 
Q 29.390625 45.796875 24.265625 45.796875 
Q 18.21875 45.796875 15.625 43.796875 
Q 13.03125 41.796875 13.03125 39.109375 
Q 13.03125 37.40625 14.109375 36.03125 
Q 15.1875 34.625 17.484375 33.6875 
Q 18.796875 33.203125 25.25 31.453125 
Q 34.578125 28.953125 38.25 27.359375 
Q 41.9375 25.78125 44.03125 22.75 
Q 46.140625 19.734375 46.140625 15.234375 
Q 46.140625 10.84375 43.578125 6.953125 
Q 41.015625 3.078125 36.171875 0.953125 
Q 31.34375 -1.171875 25.25 -1.171875 
Q 15.140625 -1.171875 9.84375 3.03125 
Q 4.546875 7.234375 3.078125 15.484375 
z
" id="ArialMT-73"/>
     </defs>
     <g style="fill:#262626;" transform="translate(235 119.837812)scale(0.1 -0.1)">
      <use xlink:href="#ArialMT-72"/>
      <use x="33.300781" xlink:href="#ArialMT-65"/>
      <use x="88.916016" xlink:href="#ArialMT-74"/>
      <use x="116.699219" xlink:href="#ArialMT-75"/>
      <use x="172.314453" xlink:href="#ArialMT-72"/>
      <use x="205.615234" xlink:href="#ArialMT-6e"/>
      <use x="261.230469" xlink:href="#ArialMT-73"/>
     </g>
    </g>
    <g id="line2d_52">
     <path d="M 207 130.512812 
L 227 130.512812 
" style="fill:none;stroke:#55a868;stroke-linecap:round;stroke-width:1.75;"/>
    </g>
    <g id="line2d_53"/>
    <g id="text_16">
     <!-- strategy_10 -->
     <defs>
      <path d="M -1.515625 -19.875 
L -1.515625 -13.53125 
L 56.734375 -13.53125 
L 56.734375 -19.875 
z
" id="ArialMT-5f"/>
     </defs>
     <g style="fill:#262626;" transform="translate(235 134.012812)scale(0.1 -0.1)">
      <use xlink:href="#ArialMT-73"/>
      <use x="50" xlink:href="#ArialMT-74"/>
      <use x="77.783203" xlink:href="#ArialMT-72"/>
      <use x="111.083984" xlink:href="#ArialMT-61"/>
      <use x="166.699219" xlink:href="#ArialMT-74"/>
      <use x="194.482422" xlink:href="#ArialMT-65"/>
      <use x="250.097656" xlink:href="#ArialMT-67"/>
      <use x="305.712891" xlink:href="#ArialMT-79"/>
      <use x="355.712891" xlink:href="#ArialMT-5f"/>
      <use x="411.328125" xlink:href="#ArialMT-31"/>
      <use x="466.943359" xlink:href="#ArialMT-30"/>
     </g>
    </g>
    <g id="line2d_54">
     <path d="M 207 144.805 
L 227 144.805 
" style="fill:none;stroke:#c44e52;stroke-linecap:round;stroke-width:1.75;"/>
    </g>
    <g id="line2d_55"/>
    <g id="text_17">
     <!-- strategy_20 -->
     <g style="fill:#262626;" transform="translate(235 148.305)scale(0.1 -0.1)">
      <use xlink:href="#ArialMT-73"/>
      <use x="50" xlink:href="#ArialMT-74"/>
      <use x="77.783203" xlink:href="#ArialMT-72"/>
      <use x="111.083984" xlink:href="#ArialMT-61"/>
      <use x="166.699219" xlink:href="#ArialMT-74"/>
      <use x="194.482422" xlink:href="#ArialMT-65"/>
      <use x="250.097656" xlink:href="#ArialMT-67"/>
      <use x="305.712891" xlink:href="#ArialMT-79"/>
      <use x="355.712891" xlink:href="#ArialMT-5f"/>
      <use x="411.328125" xlink:href="#ArialMT-32"/>
      <use x="466.943359" xlink:href="#ArialMT-30"/>
     </g>
    </g>
    <g id="line2d_56">
     <path d="M 207 159.097187 
L 227 159.097187 
" style="fill:none;stroke:#8172b2;stroke-linecap:round;stroke-width:1.75;"/>
    </g>
    <g id="line2d_57"/>
    <g id="text_18">
     <!-- strategy_30 -->
     <defs>
      <path d="M 4.203125 18.890625 
L 12.984375 20.0625 
Q 14.5 12.59375 18.140625 9.296875 
Q 21.78125 6 27 6 
Q 33.203125 6 37.46875 10.296875 
Q 41.75 14.59375 41.75 20.953125 
Q 41.75 27 37.796875 30.921875 
Q 33.84375 34.859375 27.734375 34.859375 
Q 25.25 34.859375 21.53125 33.890625 
L 22.515625 41.609375 
Q 23.390625 41.5 23.921875 41.5 
Q 29.546875 41.5 34.03125 44.421875 
Q 38.53125 47.359375 38.53125 53.46875 
Q 38.53125 58.296875 35.25 61.46875 
Q 31.984375 64.65625 26.8125 64.65625 
Q 21.6875 64.65625 18.265625 61.421875 
Q 14.84375 58.203125 13.875 51.765625 
L 5.078125 53.328125 
Q 6.6875 62.15625 12.390625 67.015625 
Q 18.109375 71.875 26.609375 71.875 
Q 32.46875 71.875 37.390625 69.359375 
Q 42.328125 66.84375 44.9375 62.5 
Q 47.5625 58.15625 47.5625 53.265625 
Q 47.5625 48.640625 45.0625 44.828125 
Q 42.578125 41.015625 37.703125 38.765625 
Q 44.046875 37.3125 47.5625 32.6875 
Q 51.078125 28.078125 51.078125 21.140625 
Q 51.078125 11.765625 44.234375 5.25 
Q 37.40625 -1.265625 26.953125 -1.265625 
Q 17.53125 -1.265625 11.296875 4.34375 
Q 5.078125 9.96875 4.203125 18.890625 
z
" id="ArialMT-33"/>
     </defs>
     <g style="fill:#262626;" transform="translate(235 162.597187)scale(0.1 -0.1)">
      <use xlink:href="#ArialMT-73"/>
      <use x="50" xlink:href="#ArialMT-74"/>
      <use x="77.783203" xlink:href="#ArialMT-72"/>
      <use x="111.083984" xlink:href="#ArialMT-61"/>
      <use x="166.699219" xlink:href="#ArialMT-74"/>
      <use x="194.482422" xlink:href="#ArialMT-65"/>
      <use x="250.097656" xlink:href="#ArialMT-67"/>
      <use x="305.712891" xlink:href="#ArialMT-79"/>
      <use x="355.712891" xlink:href="#ArialMT-5f"/>
      <use x="411.328125" xlink:href="#ArialMT-33"/>
      <use x="466.943359" xlink:href="#ArialMT-30"/>
     </g>
    </g>
    <g id="line2d_58">
     <path d="M 207 173.389375 
L 227 173.389375 
" style="fill:none;stroke:#ccb974;stroke-linecap:round;stroke-width:1.75;"/>
    </g>
    <g id="line2d_59"/>
    <g id="text_19">
     <!-- strategy_40 -->
     <g style="fill:#262626;" transform="translate(235 176.889375)scale(0.1 -0.1)">
      <use xlink:href="#ArialMT-73"/>
      <use x="50" xlink:href="#ArialMT-74"/>
      <use x="77.783203" xlink:href="#ArialMT-72"/>
      <use x="111.083984" xlink:href="#ArialMT-61"/>
      <use x="166.699219" xlink:href="#ArialMT-74"/>
      <use x="194.482422" xlink:href="#ArialMT-65"/>
      <use x="250.097656" xlink:href="#ArialMT-67"/>
      <use x="305.712891" xlink:href="#ArialMT-79"/>
      <use x="355.712891" xlink:href="#ArialMT-5f"/>
      <use x="411.328125" xlink:href="#ArialMT-34"/>
      <use x="466.943359" xlink:href="#ArialMT-30"/>
     </g>
    </g>
   </g>
  </g>
 </g>
 <defs>
  <clipPath id="p387abc38aa">
   <rect height="652.32" width="1227.6" x="198" y="103.68"/>
  </clipPath>
 </defs>
</svg>
